<?xml version="1.0" encoding="UTF-8" standalone="no"?><svg xmlns="http://www.w3.org/2000/svg" xmlns:xlink="http://www.w3.org/1999/xlink" fill="#000000" height="254.5" preserveAspectRatio="xMidYMid meet" version="1" viewBox="-0.1 -0.1 261.0 254.5" width="261" zoomAndPan="magnify"><g fill="#ffffff" id="change1_1"><path d="M96.0393,87.7831c3.6484,0,3.6545-5.67,0-5.67C92.3911,82.113,92.385,87.7831,96.0393,87.7831z" fill="inherit"/><path d="M165.3002,81.8904c3.6484,0,3.6543-5.67,0-5.67C161.6518,76.2204,161.6457,81.8904,165.3002,81.8904z" fill="inherit"/><path d="M108.4748,165.1525c-0.4006-0.1653-0.801-0.3307-1.2014-0.496c-0.0137-0.0056-0.0273-0.0112-0.041-0.0169 l0,0c0.0088-0.1767-1.9951-1.0457-2.1853-1.1454c-1.3562-0.7109-2.7668-1.3621-4.0686-2.1696 c-1.7129-1.0624-3.3613-2.2562-5.1104-3.2568c-0.0474-0.027-0.0732-0.0404-0.1016-0.0553 c-0.2148-0.176-0.4341-0.3484-0.6499-0.5218c-0.9063-0.7275-1.8125-1.455-2.7188-2.1826c-1.0776-0.865-2.0618-1.7321-3.0557-2.6921 c-2.6326-2.5431-5.0513-5.1547-7.4802-7.8961c-0.0181-0.0203-0.0369-0.0406-0.0547-0.0617 c-0.0479-0.1837-0.3164-0.5295-0.3806-0.644c-0.5518-0.986-1.1038-1.972-1.6555-2.9579c-0.6472-1.1564-1.2703-2.3013-1.8499-3.4899 c-1.0186-3.1139-2.0708-6.2196-3.0383-9.3483c-0.4646-1.5031-0.7031-3.0945-1.0327-4.6318 c-0.1775-0.8271-0.2578-1.8024-0.5471-2.6094c0.0056-0.4352-0.032-0.8759-0.0479-1.3109 c-0.0684-1.8672-0.1365-3.7345-0.2046-5.6017c-0.0518-1.4113-1.269-2.0532-2.3564-1.9329 c-1.1631-0.2417-2.4714,0.379-2.3503,1.8871c0.2678,3.3315,0.5354,6.6631,0.8088,9.9941c0.1316,1.6025,0.0806,3.3027,0.6567,4.8157 c0.7,1.8386,1.3684,3.6927,2.1011,5.5186c0.635,1.5831,1.374,3.1392,2.1604,4.6719c0.5718,1.8996,1.2051,3.7835,2.1892,5.4747 c2.0151,3.4629,4.0906,6.8161,6.2922,10.1635c0.8057,1.2248,1.6672,2.4014,2.5288,3.5883c0.9612,1.324,1.853,2.956,3.0654,4.0676 c2.8123,2.5789,5.9075,4.8948,8.9438,7.2015c2.8958,2.2,5.9141,4.2863,9.1304,6.003c1.6418,0.8763,3.5515,1.403,5.2844,2.07 c1.3145,0.5059,2.6147,0.9824,3.9541,1.4163c1.77,0.5733,3.5552,1.3033,5.3652,1.7333c1.9893,0.4725,4.106,0.6316,6.127,0.9424 c3.1099,0.4783,6.3716,0.1747,9.5071-0.0165c2.178-0.1328,4.3584-0.2689,6.5342-0.4358c1.6843-0.1293,3.3411-0.6271,4.9851-0.997 c3.459-0.7783,6.9058-1.689,10.2578-2.8552c3.0872-1.0739,6.2285-2.3616,9.0862-3.9527c1.6057-0.894,3.2664-1.7283,4.8306-2.6934 c1.7683-1.0913,3.4651-2.3203,5.1917-3.4766c1.2769-0.855,2.4341-1.8389,3.6218-2.814c1.2419-1.0197,2.5742-1.9813,3.7212-3.1085 c1.5544-1.5276,3.1138-3.0607,4.6267-4.6291c1.1465-1.1882,1.8286-2.8669,2.6309-4.2929c1.7664-3.1403,3.3037-6.4808,4.4316-9.9123 c1.0361-3.1536,1.7075-6.4929,2.4297-9.735c0.3782-1.6983,1.0076-3.5038,1.0481-5.2529c0.0496-2.1548-0.0559-4.3242-0.0845-6.4796 c-0.0413-3.0772-0.1064-6.1967-0.4788-9.2525c-0.1135-0.9316-0.2271-1.8631-0.3406-2.7947 c-0.1685-1.8109-0.3369-3.6217-0.5054-5.4326c-0.1013-1.0889-0.8582-2.025-2.0249-2.025c-1.0168,0-2.127,0.9296-2.0251,2.025 c0.0637,0.6832,0.1284,1.3643,0.1921,2.0452c-0.0383,0.162-0.0593,0.3284-0.0383,0.5016c0.0933,0.7652,0.1887,1.5281,0.2822,2.2904 c0.1216,1.5475,0.2139,3.0966,0.2371,4.6571c0.0222,1.4944,0.1599,3.0322,0.02,4.5217c-0.1868,1.9894-0.449,3.9723-0.6582,5.9594 c0.0039-0.0078,0.0068-0.0189,0.011-0.025c-0.0046,0.0068-0.0068,0.0198-0.0112,0.0274c-0.0032,0.0299-0.0071,0.0597-0.0103,0.0896 c-0.0576,0.5509-0.071,0.1691-0.0122-0.0355c-0.0991,0.2249-0.1133,0.6351-0.1545,0.8363 c-0.2292,1.1164-0.4583,2.2328-0.6873,3.3492c-0.0576,0.2795-0.6641,2.1312-0.4878,2.363 c-0.1816,0.3948-0.3584,0.7918-0.5376,1.1876c-1.5225,3.3614-3.0398,6.725-4.554,10.0901 c-0.5999,1.3335-1.5332,2.4744-2.3672,3.6728c-0.813,1.1679-1.6104,2.3447-2.469,3.4793 c-1.1663,1.5406-2.4087,3.0468-3.5085,4.6354c0.3799-0.5486,0.3245-0.3648,0.002-0.1274c-0.3706,0.2726-0.7092,0.6077-1.0583,0.907 c-0.8872,0.7603-1.7744,1.5204-2.6616,2.2807c-0.2988,0.256-0.6011,0.5084-0.8965,0.7684 c-0.1089,0.0958-0.1604,0.1428-0.187,0.1685c-0.6316,0.4889-1.2644,0.9763-1.8967,1.4644 c-1.1914,0.9197-2.3499,1.916-3.6125,2.7372c-1.6926,1.1007-3.3596,2.2603-5.0859,3.3073 c-1.3201,0.8007-2.7961,1.3944-4.1846,2.0684c-0.5444,0.2642-1.5737,0.5432-2.0735,0.9681 c0.2288-0.1614,0.4517-0.1169-0.0217,0.0225c-0.0024,0.0007-0.0046,0.0016-0.0071,0.0023c-0.0237,0.0214-0.053,0.0413-0.074,0.0635 c0.0229-0.0244,0.0476-0.0435,0.0718-0.0629c-0.4443,0.1313-0.8831,0.2892-1.3237,0.4335 c-1.1172,0.3658-2.2344,0.7316-3.3516,1.0974c-0.3745,0.1227-0.7607,0.2292-1.1289,0.3698 c-0.022,0.0083-0.1929,0.046-0.2742,0.0792c-3.3708,0.1462-6.7874,0.7112-10.1211,1.1956 c-1.0173,0.1478-2.0347,0.2938-3.0515,0.4434c-0.7129,0.1049,0.0659-0.0708,0.1074-0.0187 c-0.0789-0.0989-0.8262-0.0396-0.9541-0.0457c-1.8916-0.0905-3.7942-0.1274-5.6826-0.272 c-1.7673-0.1353-3.5327-0.3799-5.2949-0.5697c-0.3296-0.0355-0.6589-0.0736-0.9885-0.1065 c-0.0115-0.0043-0.011-0.0057-0.0251-0.0107c-0.8662-0.3027-1.8359-0.4336-2.7283-0.6444 c-3.3469-0.7905-6.749-1.5637-10.0125-2.6539C111.5468,166.5317,110.0136,165.7876,108.4748,165.1525z M90.9697,159.4153 c-0.0464-0.0302-0.0732-0.0436-0.0999-0.057c-0.0547-0.0773-0.1104-0.1536-0.1667-0.2299c0.3042,0.2534,0.6094,0.5078,0.9158,0.76 C91.4028,159.73,91.1914,159.5597,90.9697,159.4153z M193.1171,130.0416c-0.0127,0.0278-0.0249,0.0558-0.0378,0.0836 C193.0585,130.0448,193.4047,129.4198,193.1171,130.0416z M126.7819,174.5141c3.7341,0.4022,7.4111,0.6769,11.1631,0.8564 c1.5579,0.0746,3.1047-0.2688,4.6453-0.4926c1.0068-0.1463,2.0146-0.2881,3.021-0.439c0.3447-0.0115,0.6953-0.0708,1.0383-0.1055 c1.8899-0.1912,3.7854-0.3531,5.6721-0.574c1.8818-0.2203,3.7974-1.1382,5.5903-1.7253 c6.375-2.0874,12.0063-5.9684,17.2681-10.0305c1.2222-0.9435,2.4348-1.881,3.6069-2.8855c1.415-1.2125,3.1914-2.3621,4.3276-3.8485 c2.0259-2.65,4.0249-5.3068,5.9302-8.0439c0.8564-1.2307,1.8218-2.405,2.4382-3.775c0.3787-0.8416,0.7576-1.683,1.136-2.5248 c-0.0491,0.1605-0.0918,0.3239-0.144,0.4828c-0.5916,1.7963-1.4248,3.5451-2.1299,5.2998 c-0.1406,0.3495-0.2827,0.6984-0.4214,1.0486c-0.0098,0.0109-0.0125,0.0107-0.0244,0.0261 c-0.5635,0.7133-0.947,1.6835-1.3921,2.4744c-0.564,1.0027-1.1279,2.0054-1.6919,3.0081c-0.0144,0.0253-0.1143,0.1857-0.207,0.3423 c0.1084-0.0596,0.1929-0.071,0.0471,0.0238c-0.0442,0.0286-0.0847,0.0726-0.1257,0.1142c-0.0525,0.0934-0.094,0.1719-0.0862,0.1804 c-0.0198-0.021-0.0242-0.0425-0.0291-0.0639c-0.0349,0.0396-0.0706,0.081-0.104,0.1144c-1.5093,1.5101-2.9954,3.0479-4.53,4.5323 c-1.113,1.0767-2.3884,2.0065-3.5847,2.9887c-0.7083,0.5815-1.4348,1.1479-2.1292,1.7466 c-0.0081,0.0046-0.0088,0.0043-0.0176,0.0095c-0.3391,0.1997-0.6602,0.442-0.9871,0.6609c-1.6558,1.1087-3.2815,2.2924-4.98,3.3347 c-1.5576,0.9559-3.2073,1.7867-4.8042,2.6757c-0.3989,0.2222-0.7981,0.4443-1.197,0.6666 c-0.1069,0.0594-0.2393,0.112-0.3369,0.1874c-0.3303,0.2555,0.3276-0.1275,0.3147-0.1136 c-0.3994,0.4294-1.6404,0.6683-2.1724,0.885c-1.5869,0.6466-3.1643,1.3813-4.7856,1.9368 c-1.9922,0.6827-4.0437,1.2254-6.0591,1.8362c-1.3608,0.4124-2.7527,0.6891-4.1401,1.0012 c-1.0967,0.2468-2.1936,0.4936-3.2905,0.7404c-0.0386,0.0087-0.1624,0.0509-0.292,0.0897 c0.1204,0.0006,0.1787,0.0052-0.0044,0.0013c-0.1572,0.0469-0.323,0.0881-0.3696,0.0589 c-0.0261-0.0164-0.0095-0.0273,0.0208-0.0361c-0.0364,0.0034-0.0732,0.0049-0.1091,0.0073 c-3.7773,0.252-7.5383,0.4769-11.3213,0.6038c-0.8054,0.027-1.9453-0.1467-2.7195,0.0913 c-0.0127,0.004-0.0107,0.0071-0.0195,0.0109c-0.3523-0.0557-0.7051-0.1085-1.0576-0.1627 c-1.9329-0.2973-3.9548-0.4521-5.8582-0.9011c-1.8027-0.4252-3.5825-1.1594-5.3442-1.7301 c-1.3394-0.4338-2.6396-0.9104-3.9541-1.4163c-1.1362-0.4373-2.2725-0.8746-3.4087-1.3119 c-0.3159-0.1215-0.6309-0.2461-0.9478-0.3647c-0.0093-0.0088-0.0083-0.0112-0.0212-0.0222 c-0.7163-0.6091-1.7063-1.0423-2.5073-1.5316c-0.9907-0.6052-1.9814-1.2104-2.9722-1.8156 c-1.231-0.7519-2.3438-1.6717-3.4919-2.5439c-0.8867-0.6737-1.7734-1.3474-2.6602-2.0211 c-0.0327-0.0249-0.0654-0.0497-0.0981-0.0748c0.0007,0.0024,0.0054,0.007,0.0054,0.0089c0.0002-0.0023-0.0083-0.0089-0.009-0.0115 c-0.0867-0.0662-0.1731-0.1326-0.2605-0.198c-0.2817-0.2106,0.0933,0.0268,0.2244,0.1514c-0.1072-0.1254-0.4836-0.3823-0.5408-0.43 c-0.9873-0.8223-1.9644-1.7434-2.9739-2.603c0.2844,0.2141,0.5701,0.4263,0.8633,0.6247c1.6826,1.138,3.4246,2.2119,5.1509,3.2826 c2.5969,1.6107,5.4377,2.9871,8.2625,4.153c1.6055,0.6627,3.2051,1.4396,4.8525,1.9899c1.9048,0.6364,3.8879,1.0941,5.8215,1.6381 C120.7768,173.4203,123.779,174.1906,126.7819,174.5141z" fill="inherit"/><path d="M260.8515,118.8847c-0.124-2.1299-0.5574-4.2828-0.8333-6.3988 c-0.4563-3.4995-1.2695-6.9964-2.1765-10.4069c-0.022-0.0826-0.0447-0.165-0.0667-0.2476 c-0.1199-1.2348-0.2646-2.4688-0.4624-3.6998c-0.5969-3.7145-1.075-7.6313-2.1736-11.2319 c-1.2319-4.0377-2.999-7.9913-4.5681-11.9068c-1.3521-3.3745-3.3015-6.563-5.2146-9.6516 c-0.9717-1.5685-1.9048-3.163-2.9653-4.6732c-1.2229-1.7413-2.333-3.7311-3.7673-5.3078c-2.2742-2.4999-4.8855-4.7852-7.4236-7.066 c-0.5376-0.8285-1.0696-1.661-1.6064-2.4891c-0.7322-1.1295-1.3748-2.2916-2.356-3.2192c-2.3989-2.268-4.7969-4.5336-7.1606-6.838 c-1.1348-1.1063-2.2209-2.3307-3.4795-3.2978c-1.4658-1.1262-2.9363-2.2465-4.4043-3.3697 c-0.3169-0.2426-0.634-0.4852-0.9512-0.7277c-0.1165-0.0891-0.7134-0.6035-0.2883-0.2194c0.001,0.0008,0.0012,0.001,0.002,0.0018 c-0.0681-0.0609-0.1382-0.1229-0.1716-0.1506c-0.3433-0.2845-0.6892-0.5656-1.0339-0.8484 c-1.4309-1.1741-2.8481-2.3674-4.2937-3.5234c-1.2358-0.9883-2.7351-1.7004-4.0942-2.5021 c-1.0842-0.6396-2.157-1.3032-3.2646-1.9016c-5.7886-3.1266-11.6865-5.972-17.6018-8.8492 c-2.9055-1.4133-5.9822-2.4771-9.0613-3.457c-2.5566-0.8138-5.2898-1.2372-7.9114-1.8179 c-0.9204-0.2039-1.8428-0.399-2.7634-0.6024c-1.9717-0.6334-3.9155-1.3785-5.8684-2.0649 c-1.7195-0.6044-3.5129-0.6204-5.325-0.7797c-1.1936-0.1049-2.387-0.2286-3.582-0.3148c-0.0391-0.0028-0.0552-0.0033-0.0852-0.0052 c-0.353-0.077-0.7207-0.1194-1.075-0.1794c-2.2075-0.3731-4.5393-1.0421-6.7805-1.1262c-2.1943-0.0823-4.4836,0.2625-6.676,0.3909 c-1.7114,0.1002-3.4272,0.0653-5.1414,0.0714c-1.7178,0.0062-3.3489,0.0031-5.0464,0.228 c-1.9907,0.2637-3.9998,0.6389-6.0024,0.7856c-0.6201,0.0455-1.2422,0.0742-1.8638,0.1077c-0.3997-0.2361-0.8943-0.34-1.469-0.2059 c-0.5107,0.1192-1.0249,0.2312-1.5391,0.344c-2.4265,0.0888-4.856,0.1553-7.2766,0.3107c-1.8386,0.1179-3.5439,0.2802-5.345,0.6564 c-1.8271,0.3817-3.7546,0.6204-5.5251,1.2216c-4.0857,1.3872-8.1702,2.6976-12.3005,3.9452 c-3.4707,1.0484-6.8865,2.5221-10.0244,4.3241c-1.5283,0.8777-3.0225,1.8239-4.6331,2.542 c-1.8464,0.8234-3.8323,1.5249-5.5979,2.5092c-3.572,1.9915-6.9414,4.6084-10.302,6.9376 c-2.9456,2.0416-5.9656,4.0379-8.6794,6.381c-1.4229,1.2285-3.0366,2.3684-4.2417,3.8182 c-1.3645,1.642-2.8452,3.2343-4.0962,4.9656c-2.4453,3.3839-4.6938,6.9389-7.0215,10.4045 c-1.998,2.9749-4.0425,5.8592-5.8613,8.9473c-2.0542,3.4877-4.1206,7.0021-5.9058,10.6371 c-0.8926,1.8174-1.3447,3.9403-1.9688,5.86c-0.5024,1.5468-0.9363,3.0663-1.3335,4.6437C9.1574,83.9501,8.1018,88.0556,7.038,92.16 c-0.4487,1.731-1.1724,3.4031-1.7808,5.0824c-0.6123,1.6901-1.0413,3.1566-1.3647,4.9203c-0.7529,4.104-1.5667,8.1996-2.29,12.3087 c-0.3547,2.0134-0.6426,4.0406-0.9624,6.0599c-0.2893,1.8273-0.2605,3.5121-0.2085,5.3681 c0.0496,1.772,0.1599,3.5346,0.0313,5.3026c-0.1504,2.0646-0.5161,4.2256-0.4563,6.2944c0.0637,2.2103,0.5803,4.4922,0.8635,6.6852 c0.2156,1.6686,0.4399,3.3361,0.6624,5.0038c0.2346,1.7596,0.3103,3.6365,0.8437,5.3363c0.6985,2.2265,1.5247,4.449,2.1052,6.7089 c0.4792,1.8661,0.6177,3.8774,0.9089,5.7818c0.0823,0.5397,0.1648,1.0794,0.2473,1.6191c0.0068,0.0447,0.0142,0.0894,0.0205,0.1341 c-0.0762,0.1588,0.0713,0.7712,0.0842,0.9248c0.0566,0.6661,0.1135,1.3323,0.1702,1.9984c0.155,1.8215,0.0806,3.8252,0.7168,5.5552 c0.7402,2.0126,1.5098,4.0168,2.2212,6.0397c0.7256,2.0628,1.384,4.1514,2.0757,6.2259c0.5862,1.7585,1.8005,3.2618,2.7983,4.8098 c2.0222,3.1376,4.2617,6.1249,6.2949,9.2524c1.2366,1.9022,2.3638,3.8849,3.543,5.8232c0.9299,1.5284,2.2046,2.7927,3.3887,4.1284 c2.5669,2.8958,5.2456,5.7418,8.1865,8.2673c3.0898,2.6533,6.4839,5.0018,9.8069,7.3489c2.8989,2.0475,5.6956,4.3344,8.8306,6.0009 c3.6033,1.9156,7.1111,3.9379,10.6453,5.9777c3.5,2.0198,6.9648,3.8672,10.6257,5.569c1.5969,0.7423,3.1467,1.5474,4.7078,2.3644 c0.9692,0.5074,1.9282,1.0474,2.9128,1.5246c0.7434,0.3604,1.5474,0.4025,2.3591,0.5266c1.8704,0.2859,3.7727,0.4875,5.6179,0.9114 c2.1257,0.4883,4.2751,1.1444,6.4395,1.4267c2.1238,0.2769,4.2571,0.6208,6.3901,0.8098c1.9287,0.1709,3.9458-0.0535,5.8813-0.101 c3.5398-0.087,7.0823-0.0992,10.623-0.0925c1.9495,0.0038,3.8774,0.1198,5.7969-0.2363c1.3088-0.2428,2.6179-0.4856,3.9268-0.7284 c0.5193-0.0963,1.0405-0.1863,1.5586-0.2891c0.011-0.0021,0.0129-0.0032,0.0232-0.0052c0.0088,0.0016,0.0078,0.0034,0.0186,0.005 c1.0854,0.1649,2.3135,0.0079,3.4102,0.0116c1.0732,0.0037,2.1636,0.0657,3.2358,0.011c2.0657-0.1054,4.1958-0.7786,6.2192-1.1812 c1.7761-0.3533,3.5703-0.5762,5.3633-0.8315c1.8569-0.2643,3.3474-0.6085,5.1223-1.2089 c3.6208-1.2246,7.2239-2.1804,10.9478-3.0602c2.1392-0.5054,4.3469-0.8725,6.4543-1.4945 c1.9915-0.5878,3.9258-1.7042,5.8203-2.5464c3.2192-1.431,6.2454-3.269,9.4368-4.7677c1.6304-0.7657,3.3669-1.3961,4.8169-2.473 c1.7786-1.321,3.571-2.6252,5.3367-3.9636c3.127-2.3703,6.1797-4.7471,9.0405-7.428c2.8491-2.6702,5.8323-5.119,8.8193-7.6348 c1.6714-1.4078,3.3203-2.843,4.9805-4.2643c0.8811-0.7545,1.5945-1.6728,2.2793-2.6144c0.8306,0.967,2.4902,1.2343,3.2583-0.2111 c1.9087-3.5913,3.8374-7.147,5.8708-10.6684c0.1621-0.2805,0.3333-0.5565,0.5042-0.8326 c4.3359-5.4257,8.1633-11.1637,11.8215-17.0851c1.0574-1.7114,2.2317-3.3936,3.1799-5.1674 c1.0591-1.9802,1.9802-4.0587,2.9407-6.0887c1.5623-3.3027,2.8606-6.7641,4.1174-10.1942 c0.6135-1.6741,1.2964-3.3288,1.7564-5.0523c0.5356-2.0072,1.0532-4.0201,1.6072-6.0223c0.5896-2.1307,1.2229-4.2502,1.834-6.3748 c0.5222-1.8154,0.5872-3.8218,0.8293-5.6891c0.4536-3.4967,0.3713-6.9818,0.4326-10.5062 C260.7751,123.2915,260.978,121.0548,260.8515,118.8847z M246.3012,75.2547c-0.0015-0.0026-0.0022-0.0042-0.0037-0.0068 C246.2988,75.2502,246.3,75.2524,246.3012,75.2547z M242.8552,69.0397c-0.0076-0.0178-0.0156-0.0355-0.0232-0.0533 c0.0098,0.0163,0.0188,0.033,0.0286,0.0494C242.8588,69.0371,242.8569,69.0382,242.8552,69.0397z M251.061,91.6896 c0.1301,0.5447,0.2681,1.0859,0.3997,1.6298c-0.1094-0.3036-0.2188-0.6066-0.3193-0.9083 c-0.4702-1.4116-0.928-2.8304-1.3838-4.2515C250.2656,89.3138,250.7722,90.4811,251.061,91.6896z M253.9604,105.6237 c0.0552,1.1404,0.0591,2.2435,0.0393,3.3521c-0.1853-2.1888-0.5085-4.3904-0.7969-6.5486 c-0.196-1.4696-0.3923-2.9393-0.5886-4.4088c0.3911,1.5514,0.7966,3.1002,1.2031,4.6492 C253.8652,103.653,253.9128,104.6383,253.9604,105.6237z M200.0642,25.0479c0.803,0.4736,1.6057,0.9471,2.4087,1.4207 c0.0554,0.0327,0.1499,0.0745,0.2385,0.1114c-0.3618-0.1362,0.0579,0.0416,0.2559,0.204c1.9639,1.6116,3.9307,3.215,5.9233,4.7877 c-1.0356-0.5653-2.0874-1.1072-3.1113-1.6741c-0.2524-0.1396-0.6697-0.4905-0.9634-0.5331 c-0.0127-0.0018-0.0139,0.0009-0.0234,0.0004c-0.0237-0.019-0.0481-0.0374-0.072-0.056c-0.9939-0.7715-1.9875-1.5435-2.9812-2.3152 c-1.4512-1.1271-2.8989-2.2269-4.4067-3.277c-0.6748-0.47-1.3499-0.9401-2.0249-1.4101c0.3608,0.197,0.7266,0.3831,1.0857,0.5833 C197.6325,23.5801,198.8425,24.3272,200.0642,25.0479z M115.4423,5.5129c2.2976-0.2199,4.5857-0.6216,6.8757-0.9108 c1.2656-0.1599,2.5718-0.1296,3.8647-0.102c0.1233,0.0247,0.2502,0.0448,0.3884,0.0483c2.814,0.0706,5.6484,0.0341,8.4541,0.2735 c3.238,0.2764,6.4758,0.5529,9.7134,0.8356c1.0459,0.0913,2.092,0.1827,3.1379,0.274c0.2102,0.0184,0.4233,0.0449,0.6355,0.0587 c0.0049,0.0012,0.0054,0.0016,0.0103,0.0029c1.8616,0.4708,3.7739,0.7922,5.6528,1.1867c1.8042,0.3787,3.6047,0.7742,5.4045,1.1732 c0.2913,0.0926,0.5818,0.1874,0.875,0.2708c4.113,1.1698,8.1028,2.3851,12.123,3.839c0.3962,0.1432,0.7922,0.3082,1.1951,0.4331 c0.0186,0.01,0.0239,0.0137,0.0464,0.0255c1.063,0.554,2.156,1.0569,3.2324,1.5847c1.5854,0.7772,3.0151,1.5099,4.4658,2.5024 c1.1101,0.7595,2.2202,1.519,3.3303,2.2786c0.2366,0.1618,0.5464,0.4664,0.8247,0.5703c0.0505,0.0391,0.0991,0.0812,0.1477,0.1208 c1.6743,1.3692,3.332,2.7621,5.0244,4.1088c1.7163,1.3656,3.605,2.5429,5.4041,3.7959c0.0569,0.0395,0.7917,0.5801,0.8083,0.5629 c0-0.0001-0.0054-0.0043-0.0066-0.0055c0.051,0.0396,0.1018,0.0792,0.1531,0.1188c1.0193,0.7917,2.0388,1.5834,3.0581,2.3751 c1.4583,1.1324,2.8198,2.0989,4.4346,2.9926c1.583,0.8762,3.2534,1.6656,4.739,2.7025c3.5151,2.4535,7.0457,4.7886,10.6785,7.0642 c0.0828,0.052,0.1675,0.1111,0.2537,0.1666c0.165,0.205,0.5012,0.4246,0.6528,0.5649c0.9822,0.9096,1.9644,1.8192,2.9465,2.7288 c1.2471,1.1546,2.4966,2.3062,3.7468,3.4569c0.1487,0.1368,0.2952,0.276,0.4438,0.4127c0.2275,0.3453,0.4526,0.6924,0.6895,1.0311 c1.887,2.6976,3.7244,5.3086,5.3142,8.1863c1.6343,2.9578,2.9927,5.9254,4.3513,9.0239c0.1201,0.274,0.2351,0.551,0.3606,0.8226 c0.0063,0.0134,0.0066,0.0134,0.0117,0.0242c0.3137,0.7542,0.6299,1.5072,0.9451,2.2609c0.5659,1.3536,1.1848,2.6973,1.6951,4.0728 c2.1953,5.9149,4.0271,11.9866,6.0208,17.9723c0.2673,0.8031,0.4685,1.686,0.8186,2.4576 c0.0283,0.0628,0.0493,0.1033,0.0647,0.1288c0.022,0.1664,0.0444,0.3326,0.0667,0.4989c0.2607,1.9539,0.5215,3.9078,0.7825,5.8618 c0.3494,2.6175,0.7769,5.3638,0.8071,8.0003c0.0339,2.9429-0.261,5.9465-0.4971,8.8834c-0.1492,1.8564-0.4038,3.736-0.4497,5.5979 c-0.0002,0.0073,0.0002,0.0068,0.0002,0.0134c-0.0366,0.235-0.0718,0.4704-0.1074,0.7054 c-0.1599,1.0516-0.3198,2.1032-0.4797,3.1547c-0.4819,3.1678-1.1257,6.2855-1.7676,9.4258 c-0.5452,2.6683-1.074,5.4183-1.8628,8.0222c-0.8215,2.7119-1.9355,5.3931-2.9958,8.0238 c-1.2122,3.0079-2.4221,6.0161-3.6143,9.0319c-0.3726,0.9429-0.7454,1.8857-1.1179,2.8286 c-0.0574,0.1448-0.1206,0.291-0.1785,0.4382c-0.0171,0.0326-0.0337,0.064-0.0586,0.1119c-0.9009,1.715-1.7261,3.4743-2.5879,5.2093 c-1.2683,2.553-3.1013,4.7994-4.646,7.1904c-1.4863,2.3005-2.8071,4.7107-4.3589,6.9681c-1.1155,1.6226-2.231,3.2451-3.3464,4.8677 c-0.0129,0.0187-0.0823,0.1384-0.1558,0.2555c-0.0432,0.0375-0.1013,0.0932-0.1987,0.1979 c-0.6445,0.6928-1.2712,1.403-1.9065,2.1041c-2.1982,2.4263-4.3748,4.8697-6.5461,7.3202 c-1.9541,2.2051-3.8364,4.5269-5.9175,6.6091c-1.8762,1.8773-4.0706,3.4831-6.0715,5.231 c-1.4802,1.2932-2.9607,2.5863-4.4409,3.8795c-0.1833,0.1602-0.4006,0.3185-0.5728,0.497c-0.6829,0.4704-1.3503,0.965-2.0249,1.447 c-1.2378,0.8847-2.4492,1.8438-3.7319,2.6623c-1.4873,0.9489-3.0686,1.775-4.5955,2.6583 c-2.6453,1.5303-5.0779,3.3785-7.6892,4.9591c-1.144,0.6923-2.4727,1.1489-3.6929,1.6932c-0.875,0.3903-1.75,0.7806-2.625,1.171 c-0.0266,0.0118-0.1421,0.0768-0.2646,0.1401c-0.041,0.0079-0.1206,0.0327-0.2722,0.0924 c-2.885,1.1348-5.7644,2.2845-8.6287,3.4713c-1.5259,0.6324-3.0547,1.4061-4.6262,1.917 c-1.5339,0.4987-3.1851,0.7654-4.7529,1.1421c-3.0317,0.7285-6.0393,1.5422-9.0547,2.3362 c-1.2249,0.3225-2.469,0.5739-3.7046,0.8519c-0.9885,0.2225-1.9773,0.4449-2.9661,0.6675 c-0.2339,0.0526-0.4966,0.0914-0.7351,0.1606c-2.9827-0.0886-6.0161,0.2799-9.0049,0.3517 c-6.4714,0.1555-12.9375,0.0071-19.4109,0.0718c-0.1536,0.0015-0.4739-0.0552-0.646-0.0057 c-0.8623-0.1955-1.7344-0.355-2.6006-0.5325c-1.4258-0.2922-2.8501-0.6299-4.2849-0.874 c-2.8884-0.4913-5.8394-0.6316-8.6575-1.4519c-6.2495-1.8193-12.3701-3.9167-18.49-6.1323 c-0.2708-0.0981-0.5403-0.2073-0.8147-0.295c-0.6831-0.3472-1.3931-0.6509-2.0864-0.9756 c-1.437-0.6727-2.9197-1.2893-4.3252-2.0256c-2.4946-1.3068-4.8643-2.8621-7.3296-4.2262 c-1.7236-0.9537-3.4785-1.8661-5.1768-2.8643c-1.0835-0.6367-2.0479-1.5105-3.0417-2.2769 c-0.8147-0.6282-1.6296-1.2565-2.4443-1.8846c-0.1187-0.0914-0.2371-0.1829-0.3557-0.2744 c-0.0225-0.0212-0.0505-0.0471-0.0999-0.0913c-1.447-1.2919-2.9619-2.5148-4.4407-3.7702 c-2.1853-1.8555-3.9858-4.1631-5.905-6.2875c-1.8162-2.0103-3.719-3.9645-5.4319-6.0641c-1.261-1.5456-2.522-3.0912-3.783-4.6368 c-0.033-0.0404-0.0769-0.1071-0.1235-0.1764c-0.0225-0.0196-0.0657-0.0759-0.1301-0.1745 c-0.0403-0.0474-0.0806-0.0878-0.1187-0.1055c0.0303,0.0142,0.0579,0.033,0.084,0.0526c-0.0039-0.0064-0.0061-0.009-0.0103-0.0157 c-0.4849-0.7872-0.9993-1.5579-1.4985-2.3361c-1.7805-2.7759-3.4126-5.5784-5.0278-8.4555 c-1.457-2.5958-2.5452-5.3698-3.7822-8.0757c-0.5798-1.2682-1.1892-2.5235-1.7849-3.7844c-0.4041-0.8555-0.8-1.7157-1.2126-2.5671 c-0.0349-0.0716-0.0579-0.1171-0.0813-0.1633c-0.0452-0.1564-0.092-0.3476-0.1006-0.3759c-0.9333-3.0375-1.8948-6.0033-2.51-9.1182 c-0.6401-3.242-1.3491-6.4413-2.1162-9.6559c-0.1118-0.4686-0.1641-1.6541-0.4849-2.0317c0.063,0.074,0.1006,0.7792,0.022,0.1941 c-0.0481-0.3591-0.0959-0.7181-0.144-1.0772c-0.2542-1.902-0.5952-3.813-0.7651-5.7244c-0.231-2.6022-0.0137-5.3257,0.0376-7.9408 c0.0376-1.9351,0.085-3.8701,0.1274-5.8051c0.0073-0.3237,0.0442-0.666,0.022-0.9895c-0.0034-0.0469-0.0071-0.0657-0.0105-0.0906 c0.092-0.6772,0.1843-1.3542,0.2766-2.0314c0.4468-3.2776,0.9629-6.5079,1.5552-9.7625c0.5591-3.0742,1.2891-6.1091,2.031-9.1448 c0.6335-2.5916,1.7148-5.0811,2.4934-7.6329c0.886-2.9034,1.5847-5.8539,2.6995-8.6793c0.6741-1.708,1.4246-3.4042,2.0276-5.1386 c0.4844-1.3935,0.8184-2.8568,1.22-4.2762c0.2488-0.8793,0.5376-1.7574,0.749-2.6466c0.0154-0.0645,0.0281-0.1142,0.0388-0.1536 c-0.0273,0.0704-0.0698,0.1644-0.1335,0.2636c0.0574-0.0896,0.1028-0.1937,0.1443-0.2996 c0.0225-0.0768,0.0303-0.0878,0.0198-0.0502c0.0344-0.0908,0.0676-0.1828,0.104-0.2661c0.8044-1.8494,1.6091-3.6988,2.4136-5.5482 c1.0837-2.4911,2.4192-4.9039,3.6853-7.3066c1.3662-2.5922,2.7358-5.1954,4.2356-7.713c0.9802-1.645,2.0898-3.2644,2.9607-4.9695 c0.012-0.0233,0.0146-0.0316,0.0237-0.0499c0.1357-0.1566,0.2646-0.3219,0.3962-0.4779c0.6782-0.8038,1.3564-1.6077,2.0347-2.4116 c2.1123-2.504,4.3433-4.8546,6.6028-7.2289c1.8889-1.9847,3.5554-4.2369,5.5457-6.1134c2.1548-2.0312,4.6201-3.7753,6.8838-5.6908 c1.3884-1.1749,2.9846-2.2762,4.2439-3.5897c0.2502-0.1855,0.4988-0.3732,0.7483-0.5598c0.884-0.6615,1.7681-1.323,2.6523-1.9846 c2.5681-1.9215,5.3083-3.4756,8.0664-5.1172c2.2837-1.3593,4.4609-2.9961,6.8328-4.1899c2.7737-1.3961,5.6387-2.5689,8.3662-4.0574 c0.97-0.5293,1.9397-1.0585,2.9097-1.5878c0.0825-0.045,0.783-0.4805,1.2212-0.7136c0.0432-0.0092,0.1382-0.0357,0.3293-0.0947 c0.386-0.1191,0.7678-0.2537,1.1514-0.3804c1.0449-0.3453,2.0901-0.6906,3.1353-1.0358c2.8259-0.9338,5.6526-1.8654,8.4792-2.7974 c1.8657-0.6152,3.8127-1.0236,5.7471-1.4375C112.3498,5.7203,113.9023,5.6602,115.4423,5.5129z M236.9709,167.608 c-0.011,0.0313-0.0251,0.062-0.0347,0.0934C236.9438,167.6756,236.9567,167.6427,236.9709,167.608z M107.8825,243.7417 C108.0695,243.7724,108.2946,243.8353,107.8825,243.7417L107.8825,243.7417z M92.3027,11.3677 c-0.0022-0.0021-0.123,0.0406-0.2283,0.081C92.1955,11.3887,92.2854,11.3523,92.3027,11.3677z M4.0747,137.2193 c0.051-2.3063,0.3945-4.6096,0.5034-6.9142c0.0901-1.9056-0.0811-3.8478-0.1343-5.7543c-0.0142-0.5035-0.0107-1.0111-0.0425-1.5139 c-0.0044-0.0692,0.0325-0.3506-0.01-0.4283c0.1692-0.9103,0.2864-1.8359,0.4309-2.7484c0.2737-1.7289,0.5256-3.4617,0.8489-5.1821 c0.8015-4.2665,1.594-8.5343,2.3772-12.8042c0.6099-3.3246,2.3145-6.3978,3.1648-9.6785c1.0735-4.1412,2.1309-8.2854,3.1755-12.434 c0.387-1.5367,0.8926-3.0266,1.3826-4.5344c0.3899-1.1993,0.7795-2.3986,1.1692-3.5978c0.022-0.0677,0.043-0.1371,0.0669-0.2057 c-0.0168,0.0153-0.0344,0.0276-0.054,0.0278c0.0149-0.0002,0.0417-0.0361,0.0732-0.087c0.0215-0.0639,0.0461-0.127,0.062-0.1912 c0.0698-0.2803,0.0715-0.1353,0.0261,0.0318c0.1016-0.199,0.2131-0.451,0.2322-0.4866c2.0164-3.7553,4.0659-7.455,6.2288-11.1273 c1.7427-2.9592,3.7854-5.7148,5.6995-8.5646c1.0505-1.5641,2.0967-3.1313,3.1536-4.691c0.7205-1.0627,1.4407-2.1255,2.1609-3.1882 c0.3147-0.4643,0.635-0.9252,0.9443-1.3932c0.0413-0.0627,0.1165-0.1533,0.1716-0.2399c1.4355-1.481,2.5261-3.3055,3.9648-4.7834 c1.3989-1.4371,3.0825-2.6723,4.6011-3.9835c0.0708-0.061,0.1155-0.0874,0.168-0.1238c-0.0403,0.0161-0.061,0.03-0.115,0.0465 c0.0505-0.0154,0.1042-0.0485,0.1575-0.0777c0.0562-0.0363,0.0908-0.0572,0.1187-0.0672c0.2358-0.1595,0.478-0.3943,0.6609-0.5251 c1.092-0.7809,2.1838-1.5619,3.2761-2.3428c1.3823-0.9887,2.7771-1.9577,4.1741-2.926c1.4172-0.9823,2.8289-1.97,4.2688-2.9181 c1.6035-1.0556,3.1868-2.3085,4.8938-3.1868c1.9863-1.022,4.126-1.747,6.1304-2.7333c1.7361-0.8542,3.3901-1.9257,5.0681-2.8894 c0.3337-0.1917,0.7598-0.36,1.0566-0.6068c0.0129-0.0108,0.012-0.0131,0.0215-0.0219c1.0996-0.4133,2.1892-0.8557,3.2832-1.2833 c1.5952-0.6235,3.1509-1.212,4.7878-1.7065c1.175-0.355,2.3547-0.702,3.53-1.0615c-0.2126,0.1177-0.4243,0.2382-0.6372,0.3544 c-2.5767,1.4061-5.3599,2.4056-7.9355,3.8039c-2.5017,1.3582-4.8433,3.0392-7.2939,4.493 c-1.6787,0.9959-3.4011,1.9414-5.0454,2.9932c-1.1875,0.7596-2.2891,1.6839-3.4175,2.5282 c-2.7441,2.0533-5.3425,4.2328-7.96,6.4474c-2.095,1.7728-4.4119,3.3682-6.3792,5.2757c-2.1731,2.1071-4.0522,4.549-6.1428,6.7456 c-2.3506,2.47-4.5991,4.9453-6.7974,7.5508c-3.8945,4.6165-6.6841,10.1894-9.4746,15.5291 c-1.3977,2.6747-2.8228,5.348-4.0269,8.1158c-0.7498,1.7234-1.5071,3.4438-2.2495,5.1705 c-0.6169,1.4354-0.9353,3.0208-1.3599,4.5212c-0.9036,3.1923-2.0815,6.1896-3.3008,9.28 c-1.0247,2.5967-1.5962,5.3654-2.4258,8.0289c-0.8652,2.7784-1.9775,5.4869-2.646,8.3214 c-0.7627,3.2348-1.4927,6.4396-2.0874,9.7081c-0.5867,3.2254-1.0386,6.4494-1.4814,9.6987 c-0.4038,2.9655-0.3379,5.9919-0.3828,8.9827c-0.0198,1.3053-0.084,2.6343-0.1094,3.9626 C4.3593,140.3102,4.041,138.7307,4.0747,137.2193z M10.2866,175.5014C10.3161,175.6692,10.3322,176.0964,10.2866,175.5014 L10.2866,175.5014z M14.9143,188.6836C14.9924,188.8456,15.0737,189.1722,14.9143,188.6836L14.9143,188.6836z M171.0808,241.118 c-0.0925,0.0403-0.1853,0.0799-0.2764,0.1229C170.426,241.4192,170.9587,241.1422,171.0808,241.118z M195.0761,228.0688 c0.1064-0.0837,0.1968-0.1529,0.2395-0.1858C195.2358,227.9451,195.1555,228.0064,195.0761,228.0688z M219.5996,206.5857 c-0.551,0.739-1.147,1.4608-1.6599,2.2269c0.5059-0.7556,0.1077-0.2229-0.1829,0.0257c-0.426,0.3649-0.8523,0.7299-1.2783,1.0948 c-1.4187,1.2147-2.8264,2.4434-4.2598,3.6407c-3.2075,2.6793-6.3413,5.3387-9.3901,8.1957 c-1.208,1.1321-2.4023,2.1508-3.7109,3.1653c-1.0642,0.8253-2.1284,1.6505-3.1929,2.4758 c-0.1948,0.1511-0.3896,0.3021-0.5845,0.4532c0.0129-0.0104-0.0662,0.0486-0.3081,0.2272 c-1.853,1.3669-3.6465,2.9026-5.5835,4.1467c-1.6113,1.0349-3.5662,1.7121-5.3003,2.5265 c-3.1555,1.4819-6.1443,3.2761-9.3323,4.6932c-1.1843,0.5265-2.3687,1.053-3.553,1.5795 c-0.0576,0.0257-0.1155,0.0519-0.1736,0.0772c-0.1619-0.0629-0.8284,0.1964-0.9768,0.2307 c-1.9443,0.4501-3.8921,0.8873-5.8328,1.3519c-2.1355,0.511-4.2969,0.9781-6.4119,1.5674 c-1.8821,0.5245-3.7266,1.2437-5.5776,1.8698c-3.2329,1.0934-6.8179,1.1316-10.1726,1.799 c-1.2825,0.2552-2.5652,0.5104-3.8479,0.7656c-0.105,0.0209-0.2104,0.0424-0.3162,0.0629c0.0493-0.0037,0.0876-0.002,0.0876,0.0148 c0-0.0003-0.0645-0.0006-0.1572-0.001c-0.0466,0.0095-0.0938,0.0167-0.1396,0.0278c-0.3467,0.0834-0.1003,0.0078,0.103-0.0279 c-0.2637-0.0009-0.709-0.002-0.7405-0.0021c-2.1333-0.0073-4.4465-0.2827-6.5583,0.0574c-2.1313,0.3432-4.2788,0.736-6.3906,1.1848 c-0.3994-0.0695-0.8755-0.0015-1.2795-0.0023c-1.3499-0.0026-2.7-0.0051-4.05-0.0078c-3.4854-0.0067-6.9719,0.0332-10.4563,0.1188 c-1.8167,0.0446-3.6687,0.2327-5.4751,0.0038c-1.3137-0.1665-2.6277-0.333-3.9414-0.4995 c-0.4929-0.0625-0.9856-0.1258-1.4785-0.1874c-0.0046-0.0006-0.0056-0.0005-0.01-0.0011c-0.0127-0.0065-0.0161-0.0107-0.042-0.0204 c-1.041-0.389-2.2671-0.5208-3.3484-0.7692c-0.9956-0.2287-1.9897-0.4921-2.9924-0.6874c-2.002-0.39-4.0464-0.6223-6.0625-0.9305 c-0.1394-0.0212-0.2991-0.0642-0.4456-0.0712c-0.2273-0.1286-0.5305-0.23-0.7095-0.3237c-1.1948-0.6253-2.3896-1.2507-3.5845-1.876 c-1.562-0.8175-3.1523-1.5527-4.7517-2.2962c-3.2813-1.5253-6.3989-3.2841-9.5244-5.1121 c-3.6692-2.146-7.3494-4.201-11.1025-6.1962c-1.6223-0.8625-3.0786-2.0881-4.5742-3.1494 c-1.4141-1.0032-2.8296-2.0038-4.2458-3.004c-0.946-0.6682-1.8748-1.3776-2.8455-2.0098 c-0.0376-0.0246-0.0515-0.0324-0.0742-0.0464c-0.364-0.2842-0.7288-0.5675-1.093-0.8513 c-1.4426-1.1234-2.9858-2.1795-4.3308-3.4187c-3.0989-2.8553-5.9631-5.8041-8.7539-8.9524 c-0.3755-0.4238-0.7512-0.8476-1.1267-1.2714c-0.0691-0.0778-0.1738-0.2333-0.2866-0.3792 c0.0115,0.0775-0.0457,0.0942-0.1091-0.0593c-0.0227-0.0546-0.0562-0.1076-0.0896-0.1603 c-0.0461-0.0425-0.0918-0.0827-0.1333-0.0992c0.0427,0.017,0.0759,0.037,0.1094,0.0568c-0.0425-0.0641-0.0872-0.127-0.1248-0.1888 c-0.3083-0.5069-0.6167-1.0137-0.9253-1.5206c-0.9746-1.6018-1.896-3.2529-2.9438-4.8081 c-2.3171-3.4395-4.7075-6.8052-6.9548-10.2921c-0.1125-0.1745-1.2332-2.2075-1.5017-2.3633 c-0.0083-0.0258-0.0129-0.0391-0.0225-0.0689c-0.1768-0.5539-0.3679-1.1036-0.5518-1.6552 c-0.5776-1.7325-1.1184-3.4819-1.7488-5.1961c-0.4304-1.1701-0.8608-2.3401-1.2913-3.5103 c-0.0764-0.2078-0.8184-2.6319-1.0029-2.7565c-0.001-0.012-0.0015-0.0166-0.0022-0.0293 c-0.0432-0.5829-0.0994-1.1653-0.1489-1.7477c-0.0728-0.856-0.1458-1.712-0.2185-2.5679c0.3264,1.13,0.6724,2.2559,1.0688,3.3716 c0.9431,2.6544,2.4463,5.1432,3.5974,7.7157c1.3032,2.9119,2.5483,5.7999,4.1091,8.5802c1.6411,2.9237,3.353,5.7341,5.1638,8.557 c1.7366,2.7075,3.8396,5.1573,5.9043,7.6226c1.7009,2.0309,3.554,3.9457,5.3296,5.9123c2.1072,2.3341,4.1008,4.6982,6.4971,6.7327 c2.6292,2.2322,5.2852,4.3736,8.0164,6.4794c2.5356,1.9551,5.2932,3.3746,8.0972,4.9281c2.3291,1.2903,4.5591,2.7939,6.9338,3.9948 c2.7878,1.4096,5.6563,2.769,8.5947,3.8328c6.1638,2.2314,12.3362,4.3016,18.6301,6.1338c2.6094,0.7595,5.425,0.7981,8.0974,1.2731 c3.0237,0.5375,6.0156,1.558,9.1003,1.5272c6.5625-0.0656,13.1138,0.0707,19.6748-0.0869 c2.8606-0.0687,5.8298,0.0029,8.6621-0.3755c2.8252-0.3774,5.6948-1.187,8.4543-1.9167c3.1521-0.8335,6.2998-1.6617,9.47-2.4235 c1.3245-0.3183,2.7275-0.5385,4.0107-0.9973c1.8032-0.6448,3.5598-1.475,5.3291-2.2081c2.6912-1.1152,5.4163-2.1464,8.1118-3.251 c1.5652-0.6415,3.0981-1.3699,4.6431-2.059c1.1018-0.4915,2.2241-0.9122,3.229-1.5801c2.6997-1.7939,5.3672-3.5789,8.1714-5.2012 c2.9202-1.6892,5.594-3.4911,8.3418-5.4548c2.5601-1.8297,4.8474-3.9865,7.2222-6.0482c1.991-1.7284,4.2722-3.3099,6.0403-5.2658 c4.3569-4.8198,8.6394-9.7054,13.0017-14.5203c3.9707-4.3827,6.7319-9.6669,9.9683-14.5797 c1.7202-2.6108,3.5564-5.0837,4.9478-7.8842c1.5457-3.1116,2.9202-6.1761,4.197-9.4064c1.135-2.8713,2.2915-5.7338,3.4458-8.5974 c-0.0159,0.051-0.031,0.1023-0.0466,0.1533c-1.1904,3.8316-2.4407,7.6317-3.7576,11.4208 c-0.5623,1.6174-1.1702,3.1975-1.8059,4.788c-0.4536,1.1343-0.907,2.2686-1.3604,3.4029c-0.0493,0.1229-0.1038,0.247-0.1489,0.3724 c-0.1069,0.2474-0.2126,0.4955-0.3186,0.7427c-1.6716,3.8965-3.2834,7.8643-5.2161,11.6414 c-0.8342,1.6304-2.0298,3.1346-3.0417,4.6599c-0.5244,0.7903-1.0164,1.5911-1.4988,2.3983 c-0.4055,0.5008-0.8069,1.0054-1.2258,1.4936c-1.4534,1.6938-2.9912,3.3159-4.4619,4.9948 C221.8273,203.4247,220.7453,205.0481,219.5996,206.5857z M256.6074,132.0881c-0.02,1.7282-0.2913,3.4103-0.5139,5.1258 c-0.1272,0.9812-0.2559,1.9622-0.3819,2.9435c-0.0171,0.0369-0.0393,0.0924-0.0703,0.1784 c-0.177,0.4939-0.2935,1.0204-0.4385,1.5243c-0.5146,1.7893-1.0508,3.5739-1.5396,5.3705 c-0.5913,2.1734-1.0959,4.379-1.7439,6.5359c-0.5557,1.8496-1.3228,3.6555-1.9873,5.4688c-0.5823,1.5887-1.23,3.1436-1.877,4.7077 c-0.4272,1.0326-0.8572,2.0639-1.2813,3.0978c-0.0081,0.0134-0.01,0.0144-0.0205,0.0327c-0.2324,0.4034-0.4109,0.8509-0.613,1.2697 c-0.0205,0.0424-0.04,0.0857-0.0603,0.1281c0.1572-0.4402,0.3313-0.8738,0.4849-1.3156c1.1968-3.4436,2.3171-6.9098,3.385-10.3961 c0.6489-2.1191,1.4294-4.2416,1.9492-6.3957c0.4846-2.0096,0.7192-4.1118,1.0728-6.1489 c0.6145-3.5413,0.9878-7.0895,1.7988-10.5939c0.4397-1.9003,0.9126-3.7615,1.134-5.6988c0.1538-1.3455,0.3079-2.6911,0.4617-4.0366 c0.0544-0.4764,0.1133-0.9527,0.1636-1.4295c0.0024-0.0116,0.0029-0.0121,0.0056-0.0255c0.085-0.4123,0.1526-0.827,0.231-1.2403 c-0.0269,1.6204-0.0657,3.2408-0.0894,4.8608C256.6474,128.0633,256.6303,130.0758,256.6074,132.0881z" fill="inherit"/></g></svg>