<?xml version="1.0" encoding="UTF-8"?><svg xmlns="http://www.w3.org/2000/svg" height="26" viewBox="0 0 25 26" width="25"><path d="M12.5,18.7c-0.3,0-0.6,0-0.9-0.1c-1.2-0.2-2.2-0.8-3-1.6c-0.8-0.9-1.4-1.9-1.5-3.1c-0.2-1.2,0-2.4,0.5-3.5 s1.3-2,2.4-2.5c1-0.6,2.2-0.8,3.4-0.6c1.2,0.2,2.3,0.8,3.1,1.6c0.8,0.9,1.4,2,1.5,3.2c0.2,1.2,0,2.4-0.6,3.5 c-0.5,1.1-1.4,1.9-2.4,2.5C14.2,18.5,13.4,18.7,12.5,18.7z" fill="none"/><path d="M12.5,18.7c-0.3,0-0.6,0-0.9-0.1c-1.2-0.2-2.2-0.8-3-1.6c-0.8-0.9-1.4-1.9-1.5-3.1c-0.2-1.2,0-2.4,0.5-3.5 s1.3-2,2.4-2.5c1-0.6,2.2-0.8,3.4-0.6c1.2,0.2,2.3,0.8,3.1,1.6c0.8,0.9,1.4,2,1.5,3.2c0.2,1.2,0,2.4-0.6,3.5 c-0.5,1.1-1.4,1.9-2.4,2.5C14.2,18.5,13.4,18.7,12.5,18.7z" fill="none"/><g><path d="M18.6,0.3H6.4C3,0.3,0.3,3.1,0.3,6.7v12.7c0,3.5,2.7,6.4,6.1,6.4h12.2c3.4,0,6.1-2.8,6.1-6.4V6.6 C24.7,3.1,21.9,0.3,18.6,0.3z M17.4,15.6c-0.5,1.1-1.4,1.9-2.4,2.5c-0.8,0.4-1.6,0.6-2.5,0.6c-0.3,0-0.6,0-0.9-0.1 c-1.2-0.2-2.2-0.8-3-1.6c-0.8-0.9-1.4-1.9-1.5-3.1c-0.2-1.2,0-2.4,0.5-3.5s1.3-2,2.4-2.5c1-0.6,2.2-0.8,3.4-0.6 c1.2,0.2,2.3,0.8,3.1,1.6c0.8,0.9,1.4,2,1.5,3.2C18.1,13.4,17.9,14.6,17.4,15.6z" fill="#fffef5"/></g><g><path d="M12.5,8.3c-0.7,0-1.4,0.2-2.1,0.5c-0.8,0.5-1.5,1.2-2,2.1C8,11.8,7.9,12.8,8,13.8c0.2,1,0.6,1.9,1.3,2.6 c0.7,0.7,1.5,1.2,2.5,1.3c0.9,0.2,1.9,0,2.7-0.4c0.9-0.4,1.5-1.2,2-2c0.4-0.9,0.6-1.9,0.5-2.9l0,0c-0.1-1-0.6-1.9-1.3-2.7 C15,9,14.1,8.5,13.2,8.4C12.9,8.3,12.7,8.3,12.5,8.3z" fill="#fffef5"/></g></svg>