<?xml version="1.0" encoding="UTF-8"?><svg xmlns="http://www.w3.org/2000/svg" fill="none" height="25" style="fill: none;" viewBox="0 0 28 25" width="28"><path d="M27.3693 0.585872C26.178 1.48348 24.859 2.17001 23.463 2.61902C22.7137 1.6988 21.718 1.04657 20.6104 0.750552C19.5028 0.454529 18.3368 0.528992 17.2701 0.963869C16.2035 1.39875 15.2876 2.17305 14.6463 3.18207C14.005 4.19109 13.6694 5.38613 13.6847 6.60557V7.93442C11.4984 7.99497 9.33204 7.47705 7.37853 6.42677C5.42503 5.37649 3.74502 3.82646 2.48812 1.91472C2.48812 1.91472 -2.48812 13.8744 8.70842 19.1898C6.14632 21.0475 3.09417 21.979 0 21.8475C11.1965 28.4918 24.8812 21.8475 24.8812 6.5657C24.8801 6.19556 24.8467 5.82632 24.7817 5.46276C26.0514 4.12526 26.9474 2.43658 27.3693 0.585872Z" fill="#fffef5"/></svg>